<svg width="800" height="265" viewBox="0 0 800 265" fill="none" xmlns="http://www.w3.org/2000/svg"><path d="M73.675 89.27l6.634 3.908 6.637 3.913 33.172 19.556 6.634 3.908 6.633 3.913 6.638 3.909 6.634-3.909 6.634-3.913 6.632-3.908 33.173-19.556 6.632-3.913 6.638-3.909 13.268-7.821 6.354-3.744-6.354-3.748-.28-.165L213 70.047l-.28-.169-6.354-3.743-.279-.165-6.359-3.748-.279-.161-6.353-3.748-.28-.165-6.354-3.748-.28-.165-6.354-3.743-.279-.165-6.354-3.748-.284-.165-6.354-3.744-.28-.165-6.354-3.748-.28-.165-6.352-3.743-.28-.165-6.354-3.748-.28-.165-6.309-3.72v23.136l6.589 3.883 6.634 3.913 6.632 3.909 6.634 3.913 19.905 11.73v.004l-13.267 7.817-6.638 3.913-6.634 3.909v.004l-6.632 3.909-13.268 7.821-13.271-7.821-6.634-3.909v-.004l-6.633-3.909-6.638-3.913L93.58 77.54v-.004l19.905-11.73 6.633-3.913 6.634-3.909 6.633-3.913 6.638-3.908.045.025V27.052l-.045-.025-6.358 3.744-.28.165-6.354 3.748-.279.165-6.354 3.743-.28.165-6.354 3.748-.279.165-6.358 3.744-.28.165-6.354 3.748-.28.165-6.353 3.743-.28.165-6.354 3.748-.28.165-6.354 3.748-.283.16-6.354 3.749-.28.165-6.354 3.743-.28.17-6.353 3.743-.28.165-6.354 3.748 6.354 3.744 13.267 7.821z" fill="#EC1F48"/><path d="M146.655 69.714v.004l6.634 3.909 19.906 11.73 13.266-7.817v-.004l-19.904-11.73-6.634-3.913-6.634-3.909-6.634-3.913-6.587-3.884v15.648l6.587 3.88z" fill="#EC1F48"/><path d="M146.655 69.714v.004l6.634 3.909 19.906 11.73 13.266-7.817v-.004l-19.904-11.73-6.634-3.913-6.634-3.909-6.634-3.913-6.587-3.884v15.648l6.587 3.88z" fill="#000" fill-opacity=".2"/><path d="M133.382 54.072l-6.633 3.913-6.634 3.909-6.633 3.913-19.905 11.73v.004l13.267 7.817 19.905-11.73 6.633-3.909v-.004l6.638-3.909.045.03V50.187l-.045-.025-6.638 3.91z" fill="#EC1F48"/><path d="M133.382 54.072l-6.633 3.913-6.634 3.909-6.633 3.913-19.905 11.73v.004l13.267 7.817 19.905-11.73 6.633-3.909v-.004l6.638-3.909.045.03V50.187l-.045-.025-6.638 3.91z" fill="#000" fill-opacity=".6"/><path d="M133.385 171.396l-13.267-7.822-6.633-3.909-6.638-3.912-6.634-3.912-6.633-3.909-33.177-19.556-13.266 7.821 6.633 3.909 6.634 3.913 6.633 3.908 6.634 3.913 6.633 3.909 6.634 3.913 6.633 3.908 6.634 3.913 6.633 3.909 6.634 3.913 6.634 3.908v-23.135l-6.634-3.909-6.634-3.913-6.633-3.909-6.634-3.913-19.904-11.73v.004l13.267 7.821 6.633 3.909v.004l6.638 3.909 6.634 3.913 6.633 3.908 13.267 7.822 13.271-7.822 6.634-3.908 6.633-3.913 6.638-3.909v-.004l6.634-3.909 19.904-11.73v-.004l-19.904 11.73-6.634 3.913-6.633 3.909-6.634 3.913-6.638 3.909v23.135l6.638-3.908 6.634-3.913 6.633-3.909 6.634-3.913 6.633-3.908 6.634-3.913 6.633-3.909 13.267-7.821-13.267-7.821-6.633-3.909-6.634-3.913-33.173-19.556z" fill="#EC1F48"/><path d="M290.88 168.12c-8.29 0-15.35-1.96-21.18-5.88-5.83-3.92-10.29-9.31-13.38-16.17-3.09-6.86-4.63-14.76-4.63-23.7 0-8.94 1.54-16.84 4.63-23.7 3.09-6.86 7.55-12.25 13.38-16.17 5.83-3.92 12.89-5.88 21.18-5.88 8.29 0 15.35 1.96 21.18 5.88 5.83 3.92 10.29 9.31 13.38 16.17 3.09 6.86 4.63 14.76 4.63 23.7 0 8.94-1.54 16.84-4.63 23.7-3.09 6.86-7.55 12.25-13.38 16.17-5.83 3.92-12.89 5.88-21.18 5.88zm0-13.02c5.04 0 9.24-1.33 12.6-3.99 3.36-2.66 5.88-6.3 7.56-10.92 1.68-4.62 2.52-9.8 2.52-15.54 0-5.74-.84-10.92-2.52-15.54-1.68-4.62-4.2-8.26-7.56-10.92-3.36-2.66-7.56-3.99-12.6-3.99-5.04 0-9.24 1.33-12.6 3.99-3.36 2.66-5.88 6.3-7.56 10.92-1.68 4.62-2.52 9.8-2.52 15.54 0 5.74.84 10.92 2.52 15.54 1.68 4.62 4.2 8.26 7.56 10.92 3.36 2.66 7.56 3.99 12.6 3.99zM359.04 167.16c-6.86 0-12.6-1.54-17.22-4.62-4.62-3.08-8.05-7.28-10.29-12.6-2.24-5.32-3.36-11.34-3.36-18.06 0-6.86 1.12-12.88 3.36-18.06 2.24-5.18 5.67-9.24 10.29-12.18 4.62-2.94 10.36-4.41 17.22-4.41 5.6 0 10.36 1.05 14.28 3.15 3.92 2.1 7 4.97 9.24 8.61 2.24 3.64 3.57 7.7 3.99 12.18h-13.86c-.56-3.5-2.03-6.3-4.41-8.4-2.38-2.1-5.46-3.15-9.24-3.15-3.22 0-5.95.84-8.19 2.52-2.24 1.68-3.92 4.13-5.04 7.35-1.12 3.22-1.68 7.14-1.68 11.76 0 4.62.56 8.61 1.68 11.97 1.12 3.36 2.8 5.95 5.04 7.77 2.24 1.82 4.97 2.73 8.19 2.73 2.24 0 4.27-.42 6.09-1.26 1.82-.84 3.36-2.03 4.62-3.57 1.26-1.54 2.17-3.36 2.73-5.46h13.86c-.42 4.48-1.75 8.54-3.99 12.18-2.24 3.64-5.32 6.51-9.24 8.61-3.92 2.1-8.68 3.15-14.28 3.15zm37.47-69.3h14.7v16.38l-.84-3.78c1.68-4.2 4.27-7.42 7.77-9.66 3.5-2.24 7.63-3.36 12.39-3.36 3.92 0 7.42.84 10.5 2.52 3.08 1.68 5.53 4.2 7.35 7.56 1.82 3.36 2.73 7.56 2.73 12.6v45.36h-14.7v-43.26c0-4.62-1.19-8.12-3.57-10.5-2.38-2.38-5.46-3.57-9.24-3.57-2.66 0-5.04.63-7.14 1.89-2.1 1.26-3.78 3.08-5.04 5.46-1.26 2.38-1.89 5.25-1.89 8.61v41.37h-14.7V97.86h.68zm68.4-20.16h14.7v86.58h-14.7V77.7zm40.11 0h14.7v86.58h-14.7V77.7z" fill="#000"/></svg>
